{
    "asset" : {
        "generator" : "Khronos glTF Blender I/O v1.8.19",
        "version" : "2.0"
    },
    "scene" : 0,
    "scenes" : [
        {
            "name" : "Scene",
            "nodes" : [
                0,
                1,
                2,
                3,
                7,
                11
            ]
        }
    ],
    "nodes" : [
        {
            "mesh" : 0,
            "name" : "Ellipse 3",
            "rotation" : [
                0,
                1,
                0,
                -4.371138828673793e-08
            ],
            "scale" : [
                0.009999999776482582,
                0.009999999776482582,
                0.009999999776482582
            ],
            "translation" : [
                5.418229579925537,
                21.990026473999023,
                -1
            ]
        },
        {
            "mesh" : 1,
            "name" : "Ellipse 2",
            "rotation" : [
                0,
                1,
                0,
                7.549790126404332e-08
            ],
            "scale" : [
                0.009999999776482582,
                0.009999999776482582,
                0.009999999776482582
            ],
            "translation" : [
                -15.06028938293457,
                12.902020454406738,
                1
            ]
        },
        {
            "mesh" : 2,
            "name" : "Ellipse",
            "rotation" : [
                0,
                -1,
                0,
                7.549790126404332e-08
            ],
            "scale" : [
                0.009999999776482582,
                0.009999999776482582,
                0.009999999776482582
            ],
            "translation" : [
                14.972582817077637,
                -2.544039011001587,
                1.100000023841858
            ]
        },
        {
            "mesh" : 3,
            "name" : "Rectangle",
            "rotation" : [
                0,
                -1,
                0,
                7.549790126404332e-08
            ],
            "scale" : [
                0.009999999776482582,
                0.009999999776482582,
                0.009999999776482582
            ]
        },
        {
            "mesh" : 4,
            "name" : "Spline",
            "rotation" : [
                0,
                0,
                0,
                -1
            ],
            "translation" : [
                -21.072368621826172,
                -21.207500457763672,
                0
            ]
        },
        {
            "children" : [
                4
            ],
            "name" : "Capa 1"
        },
        {
            "children" : [
                5
            ],
            "name" : "Nulo "
        },
        {
            "children" : [
                6
            ],
            "name" : "logo.ai",
            "rotation" : [
                0,
                0,
                0,
                -1
            ],
            "scale" : [
                1.100000023841858,
                1.100000023841858,
                1.100000023841858
            ],
            "translation" : [
                0,
                14.594799995422363,
                0.5
            ]
        },
        {
            "mesh" : 5,
            "name" : "Spline.001",
            "rotation" : [
                0,
                0,
                0,
                -1
            ],
            "translation" : [
                -18.747299194335938,
                -21.207500457763672,
                0
            ]
        },
        {
            "children" : [
                8
            ],
            "name" : "Capa 1.001"
        },
        {
            "children" : [
                9
            ],
            "name" : "Nulo .001"
        },
        {
            "children" : [
                10
            ],
            "name" : "boton.ai",
            "rotation" : [
                0,
                0,
                0,
                -1
            ],
            "scale" : [
                1.2000000476837158,
                1.2000000476837158,
                1.2000000476837158
            ],
            "translation" : [
                -3.0085721015930176,
                -17.09124755859375,
                0.5
            ]
        }
    ],
    "materials" : [
        {
            "doubleSided" : true,
            "name" : "Material.008",
            "pbrMetallicRoughness" : {
                "baseColorTexture" : {
                    "index" : 0
                },
                "metallicFactor" : 0,
                "roughnessFactor" : 0.5
            }
        },
        {
            "doubleSided" : true,
            "name" : "Material.007",
            "pbrMetallicRoughness" : {
                "baseColorTexture" : {
                    "index" : 1
                },
                "metallicFactor" : 0,
                "roughnessFactor" : 0.5
            }
        },
        {
            "doubleSided" : true,
            "name" : "Material.005",
            "pbrMetallicRoughness" : {
                "baseColorTexture" : {
                    "index" : 2
                },
                "metallicFactor" : 0,
                "roughnessFactor" : 0.5
            }
        },
        {
            "doubleSided" : true,
            "name" : "Material.006",
            "pbrMetallicRoughness" : {
                "baseColorTexture" : {
                    "index" : 3
                },
                "metallicFactor" : 0,
                "roughnessFactor" : 0.5
            }
        },
        {
            "doubleSided" : true,
            "name" : "Material.001",
            "pbrMetallicRoughness" : {
                "baseColorFactor" : [
                    0.8962689638137817,
                    0.8307691216468811,
                    0.6038272976875305,
                    1
                ],
                "metallicFactor" : 0,
                "roughnessFactor" : 0.5
            }
        },
        {
            "doubleSided" : true,
            "name" : "Material.002",
            "pbrMetallicRoughness" : {
                "baseColorTexture" : {
                    "index" : 4
                },
                "metallicFactor" : 0,
                "roughnessFactor" : 0.5
            }
        }
    ],
    "meshes" : [
        {
            "name" : "Mesh_0.002",
            "primitives" : [
                {
                    "attributes" : {
                        "POSITION" : 0,
                        "NORMAL" : 1,
                        "TEXCOORD_0" : 2
                    },
                    "indices" : 3,
                    "material" : 0
                }
            ]
        },
        {
            "name" : "Mesh_1.001",
            "primitives" : [
                {
                    "attributes" : {
                        "POSITION" : 4,
                        "NORMAL" : 5,
                        "TEXCOORD_0" : 6
                    },
                    "indices" : 7,
                    "material" : 1
                }
            ]
        },
        {
            "name" : "Mesh_2.001",
            "primitives" : [
                {
                    "attributes" : {
                        "POSITION" : 8,
                        "NORMAL" : 9,
                        "TEXCOORD_0" : 10
                    },
                    "indices" : 11,
                    "material" : 2
                }
            ]
        },
        {
            "name" : "Mesh_3.001",
            "primitives" : [
                {
                    "attributes" : {
                        "POSITION" : 12,
                        "NORMAL" : 13,
                        "TEXCOORD_0" : 14
                    },
                    "indices" : 15,
                    "material" : 3
                }
            ]
        },
        {
            "name" : "Spline",
            "primitives" : [
                {
                    "attributes" : {
                        "POSITION" : 16,
                        "NORMAL" : 17,
                        "TEXCOORD_0" : 18
                    },
                    "indices" : 19,
                    "material" : 4
                }
            ]
        },
        {
            "name" : "Spline.001",
            "primitives" : [
                {
                    "attributes" : {
                        "POSITION" : 20,
                        "NORMAL" : 21,
                        "TEXCOORD_0" : 22,
                        "COLOR_0" : 23
                    },
                    "indices" : 24,
                    "material" : 5
                }
            ]
        }
    ],
    "textures" : [
        {
            "sampler" : 0,
            "source" : 0
        },
        {
            "sampler" : 0,
            "source" : 1
        },
        {
            "sampler" : 0,
            "source" : 2
        },
        {
            "sampler" : 0,
            "source" : 3
        },
        {
            "sampler" : 0,
            "source" : 4
        }
    ],
    "images" : [
        {
            "mimeType" : "image/png",
            "name" : "AGUA1",
            "uri" : "textures/AGUA1.png"
        },
        {
            "mimeType" : "image/png",
            "name" : "AGUA4",
            "uri" : "textures/AGUA4.png"
        },
        {
            "mimeType" : "image/png",
            "name" : "AGUA6",
            "uri" : "textures/AGUA6.png"
        },
        {
            "mimeType" : "image/png",
            "name" : "AGUA22",
            "uri" : "textures/AGUA22.png"
        },
        {
            "mimeType" : "image/png",
            "name" : "AGUAcontenedor",
            "uri" : "textures/AGUAcontenedor.png"
        }
    ],
    "accessors" : [
        {
            "bufferView" : 0,
            "componentType" : 5126,
            "count" : 88,
            "max" : [
                1441.5,
                1441.5,
                0
            ],
            "min" : [
                -1441.5,
                -1441.5,
                0
            ],
            "type" : "VEC3"
        },
        {
            "bufferView" : 1,
            "componentType" : 5126,
            "count" : 88,
            "type" : "VEC3"
        },
        {
            "bufferView" : 2,
            "componentType" : 5126,
            "count" : 88,
            "type" : "VEC2"
        },
        {
            "bufferView" : 3,
            "componentType" : 5123,
            "count" : 186,
            "type" : "SCALAR"
        },
        {
            "bufferView" : 4,
            "componentType" : 5126,
            "count" : 85,
            "max" : [
                632.5,
                632.5,
                0
            ],
            "min" : [
                -632.5,
                -632.5,
                0
            ],
            "type" : "VEC3"
        },
        {
            "bufferView" : 5,
            "componentType" : 5126,
            "count" : 85,
            "type" : "VEC3"
        },
        {
            "bufferView" : 6,
            "componentType" : 5126,
            "count" : 85,
            "type" : "VEC2"
        },
        {
            "bufferView" : 7,
            "componentType" : 5123,
            "count" : 186,
            "type" : "SCALAR"
        },
        {
            "bufferView" : 8,
            "componentType" : 5126,
            "count" : 87,
            "max" : [
                699.5,
                699.5,
                0
            ],
            "min" : [
                -699.5,
                -699.5,
                0
            ],
            "type" : "VEC3"
        },
        {
            "bufferView" : 9,
            "componentType" : 5126,
            "count" : 87,
            "type" : "VEC3"
        },
        {
            "bufferView" : 10,
            "componentType" : 5126,
            "count" : 87,
            "type" : "VEC2"
        },
        {
            "bufferView" : 11,
            "componentType" : 5123,
            "count" : 186,
            "type" : "SCALAR"
        },
        {
            "bufferView" : 12,
            "componentType" : 5126,
            "count" : 101,
            "max" : [
                1656.5,
                2328,
                0
            ],
            "min" : [
                -1656.5,
                -2328,
                0
            ],
            "type" : "VEC3"
        },
        {
            "bufferView" : 13,
            "componentType" : 5126,
            "count" : 101,
            "type" : "VEC3"
        },
        {
            "bufferView" : 14,
            "componentType" : 5126,
            "count" : 101,
            "type" : "VEC2"
        },
        {
            "bufferView" : 15,
            "componentType" : 5123,
            "count" : 246,
            "type" : "SCALAR"
        },
        {
            "bufferView" : 16,
            "componentType" : 5126,
            "count" : 2564,
            "max" : [
                24.60430335998535,
                24.741079330444336,
                0
            ],
            "min" : [
                17.778940200805664,
                17.633949279785156,
                -0.009999999776482582
            ],
            "type" : "VEC3"
        },
        {
            "bufferView" : 17,
            "componentType" : 5126,
            "count" : 2564,
            "type" : "VEC3"
        },
        {
            "bufferView" : 18,
            "componentType" : 5126,
            "count" : 2564,
            "type" : "VEC2"
        },
        {
            "bufferView" : 19,
            "componentType" : 5123,
            "count" : 5280,
            "type" : "SCALAR"
        },
        {
            "bufferView" : 20,
            "componentType" : 5126,
            "count" : 444,
            "max" : [
                33.62007522583008,
                25.04826545715332,
                0
            ],
            "min" : [
                8.710436820983887,
                17.284347534179688,
                -0.009999999776482582
            ],
            "type" : "VEC3"
        },
        {
            "bufferView" : 21,
            "componentType" : 5126,
            "count" : 444,
            "type" : "VEC3"
        },
        {
            "bufferView" : 22,
            "componentType" : 5126,
            "count" : 444,
            "type" : "VEC2"
        },
        {
            "bufferView" : 23,
            "componentType" : 5123,
            "count" : 444,
            "normalized" : true,
            "type" : "VEC4"
        },
        {
            "bufferView" : 24,
            "componentType" : 5123,
            "count" : 912,
            "type" : "SCALAR"
        }
    ],
    "bufferViews" : [
        {
            "buffer" : 0,
            "byteLength" : 1056,
            "byteOffset" : 0
        },
        {
            "buffer" : 0,
            "byteLength" : 1056,
            "byteOffset" : 1056
        },
        {
            "buffer" : 0,
            "byteLength" : 704,
            "byteOffset" : 2112
        },
        {
            "buffer" : 0,
            "byteLength" : 372,
            "byteOffset" : 2816
        },
        {
            "buffer" : 0,
            "byteLength" : 1020,
            "byteOffset" : 3188
        },
        {
            "buffer" : 0,
            "byteLength" : 1020,
            "byteOffset" : 4208
        },
        {
            "buffer" : 0,
            "byteLength" : 680,
            "byteOffset" : 5228
        },
        {
            "buffer" : 0,
            "byteLength" : 372,
            "byteOffset" : 5908
        },
        {
            "buffer" : 0,
            "byteLength" : 1044,
            "byteOffset" : 6280
        },
        {
            "buffer" : 0,
            "byteLength" : 1044,
            "byteOffset" : 7324
        },
        {
            "buffer" : 0,
            "byteLength" : 696,
            "byteOffset" : 8368
        },
        {
            "buffer" : 0,
            "byteLength" : 372,
            "byteOffset" : 9064
        },
        {
            "buffer" : 0,
            "byteLength" : 1212,
            "byteOffset" : 9436
        },
        {
            "buffer" : 0,
            "byteLength" : 1212,
            "byteOffset" : 10648
        },
        {
            "buffer" : 0,
            "byteLength" : 808,
            "byteOffset" : 11860
        },
        {
            "buffer" : 0,
            "byteLength" : 492,
            "byteOffset" : 12668
        },
        {
            "buffer" : 0,
            "byteLength" : 30768,
            "byteOffset" : 13160
        },
        {
            "buffer" : 0,
            "byteLength" : 30768,
            "byteOffset" : 43928
        },
        {
            "buffer" : 0,
            "byteLength" : 20512,
            "byteOffset" : 74696
        },
        {
            "buffer" : 0,
            "byteLength" : 10560,
            "byteOffset" : 95208
        },
        {
            "buffer" : 0,
            "byteLength" : 5328,
            "byteOffset" : 105768
        },
        {
            "buffer" : 0,
            "byteLength" : 5328,
            "byteOffset" : 111096
        },
        {
            "buffer" : 0,
            "byteLength" : 3552,
            "byteOffset" : 116424
        },
        {
            "buffer" : 0,
            "byteLength" : 3552,
            "byteOffset" : 119976
        },
        {
            "buffer" : 0,
            "byteLength" : 1824,
            "byteOffset" : 123528
        }
    ],
    "samplers" : [
        {
            "magFilter" : 9729,
            "minFilter" : 9987
        }
    ],
    "buffers" : [
        {
            "byteLength" : 125352,
            "uri" : "scenefinal.bin"
        }
    ]
}
